<svg id="Layer_1" data-name="Layer 1" xmlns="http://www.w3.org/2000/svg" viewBox="0 0 594.85 105.22"><defs><style>.cls-1{fill:#fff;}</style></defs><title>SolidFire-Gotham_WHITE</title><path class="cls-1" d="M106.15,307.76l4.82-5.53c10.92,10.07,21,14.74,35.6,14.74,14.89,0,25.1-8.37,25.1-19.71V297c0-10.5-5.53-16.59-28.07-21.13-23.83-4.82-33.47-12.9-33.47-27.94v-0.28c0-14.74,13.47-26.09,31.91-26.09,14.46,0,24,4,34,12l-4.68,5.82c-9.36-8.09-18.72-11.21-29.64-11.21-14.61,0-24.25,8.37-24.25,18.72v0.28c0,10.5,5.39,16.87,28.93,21.69,23,4.68,32.61,12.91,32.61,27.37v0.28c0,16-13.75,27.09-32.89,27.09C130.26,323.64,118.06,318.39,106.15,307.76Z" transform="translate(-106.15 -218.7)"/><path class="cls-1" d="M196.81,286.34v-0.28c0-20.28,15.74-37.87,37.29-37.87,21.41,0,37,17.3,37,37.58v0.29c0,20.27-15.74,37.86-37.29,37.86C212.41,323.92,196.81,306.62,196.81,286.34Zm66.79,0v-0.28c0-17.45-13-31.34-29.78-31.34-17.16,0-29.49,14-29.49,31.05v0.29c0,17.44,13,31.34,29.78,31.34C251.26,317.4,263.6,303.36,263.6,286.34Z" transform="translate(-106.15 -218.7)"/><path class="cls-1" d="M293.57,218.7h7V322.22h-7V218.7Z" transform="translate(-106.15 -218.7)"/><path class="cls-1" d="M328,221.54h8.65V231H328v-9.5Zm0.85,28.36h7v72.32h-7V249.9Z" transform="translate(-106.15 -218.7)"/><path class="cls-1" d="M358.55,286.34v-0.28c0-23.54,17.72-37.87,35.16-37.87,14.47,0,23.83,8.23,29.78,17.3V218.7h7V322.22h-7V306.05c-6.23,9.5-15.45,17.87-29.78,17.87C376.27,323.92,358.55,309.88,358.55,286.34Zm65.37-.14v-0.28c0-18.58-14.46-31.05-29.49-31.05-15.74,0-28.36,11.48-28.36,30.91v0.29c0,19,13.19,31.19,28.36,31.19S423.92,304.63,423.92,286.2Z" transform="translate(-106.15 -218.7)"/><path class="cls-1" d="M458.42,223h69.91v6.81H465.8v40.7h56.15v6.81H465.8v44.95h-7.38V223Z" transform="translate(-106.15 -218.7)"/><path class="cls-1" d="M550.08,221.54h8.65V231h-8.65v-9.5Zm0.85,28.36h7v72.32h-7V249.9Z" transform="translate(-106.15 -218.7)"/><path class="cls-1" d="M585.26,249.9h7v20.56c5.67-12.9,17.72-22.27,32-21.69v7.66h-0.71c-16.73,0-31.34,12.62-31.34,36.16v29.64h-7V249.9Z" transform="translate(-106.15 -218.7)"/><path class="cls-1" d="M633.51,286.2v-0.28c0-21,14.74-37.72,34.31-37.72,20.27,0,33.18,16.45,33.18,37.87a18.5,18.5,0,0,1-.14,2.83h-60c1.28,18,14.18,28.5,28.36,28.5,11.21,0,18.86-5,24.82-11.34l4.82,4.25c-7.37,7.94-16,13.61-29.92,13.61C650,323.92,633.51,308.75,633.51,286.2Zm60-3.54c-1-14.61-9.36-28.07-25.95-28.07-14.32,0-25.38,12.05-26.66,28.07h52.61Z" transform="translate(-106.15 -218.7)"/></svg>