<?xml version="1.0" encoding="UTF-8" standalone="no"?>
<svg width="144px" height="142px" viewBox="0 0 144 142" version="1.1" xmlns="http://www.w3.org/2000/svg" xmlns:xlink="http://www.w3.org/1999/xlink">
    <!-- Generator: Sketch 41.2 (35397) - http://www.bohemiancoding.com/sketch -->
    <title>right-drawn-arrow</title>
    <desc>Created with Sketch.</desc>
    <defs></defs>
    <g id="Main-Dashboard-Copy" stroke="none" stroke-width="1" fill="none" fill-rule="evenodd">
        <g id="Overview" transform="translate(-352.000000, -23.000000)" fill="#50E3C2">
            <g id="right-drawn-arrow" transform="translate(424.000000, 94.000000) scale(-1, -1) translate(-424.000000, -94.000000) translate(352.000000, 23.000000)">
                <path d="M143.575323,129.176311 C140.82241,120.70804 136.58716,112.662507 132.986852,104.617321 C132.563327,103.558744 130.869227,103.558744 130.233939,104.19389 C126.634323,108.004768 122.610835,111.815645 120.281101,116.473385 L120.069339,116.473385 C94.2343136,118.378824 69.2463383,96.3600729 51.4582881,80.2700458 C30.9173254,61.8508031 12.2822251,39.4089671 4.87053756,12.521107 C4.44701255,9.13366011 4.02348755,5.53449773 4.02348755,1.93533536 C4.02348755,0.24161189 1.69410002,0.24161189 1.48233752,1.93533536 L1.48233752,3.84077426 C0.635287508,3.84077426 0,4.47592056 0,5.53449773 C0.211762503,7.8633675 0.84705001,10.1922373 1.27057502,12.521107 C2.96467504,69.8959896 60.1405507,125.153718 116.045851,128.75288 C114.139989,132.140327 112.446235,135.739144 110.32861,139.126936 C109.269451,140.608599 110.963897,142.090607 112.446235,141.878891 C123.03436,140.397229 132.563673,135.315713 142.304748,131.505181 C143.151452,131.293465 143.998502,130.446604 143.575323,129.176311 Z M115.198801,137.644928 C116.469722,134.892628 117.316426,132.140327 118.798764,129.388026 C119.222635,128.329103 118.587001,127.482588 117.951714,127.270872 C117.951714,126.635726 117.528189,126.211949 116.892901,126.00058 C66.2816633,117.531962 25.1997378,83.0223465 9.95283762,36.2328897 C19.9056752,54.6521324 35.1525754,70.7425054 50.1877131,84.2922931 C61.1993632,94.2432645 72.8463009,103.134967 85.552051,110.545007 C95.5048886,116.261324 107.998876,121.554209 119.434051,117.955393 L119.434051,117.955393 C118.798764,119.649117 121.339914,120.495978 122.186964,119.225686 C124.939876,115.626523 127.692789,112.239076 130.657464,109.063345 C133.621793,115.626523 136.798577,122.189356 139.127618,128.96425 C131.292752,131.928612 123.457539,135.739489 115.198801,137.644928 Z" id="Shape"></path>
            </g>
        </g>
    </g>
</svg>